HIERARCHY
ROOT Hips
{
	OFFSET -3.958830 18.904000 13.208200
	CHANNELS 6 Xposition Yposition Zposition Zrotation Yrotation Xrotation 
	JOINT LHipJoint
	{
		OFFSET 0.000000 0.000000 0.000000
		CHANNELS 3 Zrotation Yrotation Xrotation
		JOINT LeftUpLeg
		{
			OFFSET 1.800000 -1.400000 0.085000
			CHANNELS 3 Zrotation Yrotation Xrotation
			JOINT LeftLeg
			{
				OFFSET 2.215000 -6.000000 0.000000
				CHANNELS 3 Zrotation Yrotation Xrotation
				JOINT LeftFoot
				{
					OFFSET 2.500000 -6.900000 0.000000
					CHANNELS 3 Zrotation Yrotation Xrotation
					JOINT LeftToeBase
					{
						OFFSET 0.200000 -0.500000 1.950000
						CHANNELS 3 Zrotation Yrotation Xrotation
						End Site
						{
							OFFSET 0.000000 0.000000 0.000000
						}
					}
				}
			}
		}
	}
	JOINT RHipJoint
	{
		OFFSET 0.000000 0.000000 0.000000
		CHANNELS 3 Zrotation Yrotation Xrotation
		JOINT RightUpLeg
		{
			OFFSET -1.800000 -1.400000 0.085000
			CHANNELS 3 Zrotation Yrotation Xrotation
			JOINT RightLeg
			{
				OFFSET -2.215000 -6.000000 0.000000
				CHANNELS 3 Zrotation Yrotation Xrotation
				JOINT RightFoot
				{
					OFFSET -2.500000 -6.900000 0.000000
					CHANNELS 3 Zrotation Yrotation Xrotation
					JOINT RightToeBase
					{
						OFFSET -0.200000 -0.500000 1.950000
						CHANNELS 3 Zrotation Yrotation Xrotation
						End Site
						{
							OFFSET 0.000000 0.000000 0.000000
						}
					}
				}
			}
		}
	}
	JOINT LowerBack
	{
		OFFSET 0.000000 0.000000 0.000000
		CHANNELS 3 Zrotation Yrotation Xrotation
		JOINT Spine
		{
			OFFSET -0.087000 1.940000 -0.288900
			CHANNELS 3 Zrotation Yrotation Xrotation
			JOINT Spine1
			{
				OFFSET 0.000000 1.950000 0.060000
				CHANNELS 3 Zrotation Yrotation Xrotation
				JOINT Neck
				{
					OFFSET 0.000000 0.000000 0.000000
					CHANNELS 3 Zrotation Yrotation Xrotation
					JOINT Neck1
					{
						OFFSET 0.000000 1.600000 0.340000
						CHANNELS 3 Zrotation Yrotation Xrotation
						JOINT Head
						{
							OFFSET 0.000000 1.667000 -0.240000
							CHANNELS 3 Zrotation Yrotation Xrotation
							End Site
							{
								OFFSET 0.000000 0.000000 0.000000
							}
						}
					}
				}
				JOINT LeftShoulder
				{
					OFFSET 0.000000 0.000000 0.000000
					CHANNELS 3 Zrotation Yrotation Xrotation
					JOINT LeftArm
					{
						OFFSET 2.700000 1.550000 -0.730000
						CHANNELS 3 Zrotation Yrotation Xrotation
						JOINT LeftForeArm
						{
							OFFSET 5.450000 0.000000 0.000000
							CHANNELS 3 Zrotation Yrotation Xrotation
							JOINT LeftHand
							{
								OFFSET 3.450000 0.000000 0.000000
								CHANNELS 3 Zrotation Yrotation Xrotation
								JOINT LeftHandIndex1
								{
									OFFSET 0.750000 0.000000 0.000000
									CHANNELS 3 Zrotation Yrotation Xrotation
									End Site
									{
										OFFSET 0.000000 0.000000 0.000000
									}
								}
							}
						}
					}
				}
				JOINT RightShoulder
				{
					OFFSET 0.000000 0.000000 0.000000
					CHANNELS 3 Zrotation Yrotation Xrotation
					JOINT RightArm
					{
						OFFSET -2.700000 1.550000 -0.730000
						CHANNELS 3 Zrotation Yrotation Xrotation
						JOINT RightForeArm
						{
							OFFSET -5.450000 0.000000 0.000000
							CHANNELS 3 Zrotation Yrotation Xrotation
							JOINT RightHand
							{
								OFFSET -3.450000 0.000000 0.000000
								CHANNELS 3 Zrotation Yrotation Xrotation
								JOINT RightHandIndex1
								{
									OFFSET -0.750000 0.000000 0.000000
									CHANNELS 3 Zrotation Yrotation Xrotation
									End Site
									{
										OFFSET 0.000000 0.000000 0.000000
									}
								}
							}
						}
					}
				}
			}
		}
	}
}
MOTION
Frames: 13
Frame Time: 0.016667
-0.623580 16.689320 -5.815700 -2.449114 -10.406151 0.499298 -15.043561 13.773755 2.922831 16.990363 -0.879433 -8.801205 -13.057524 10.538013 20.804668 0.133252 6.753288 2.390545 0.301270 -0.041620 0.143080 18.281376 -10.888747 2.068449 -19.879375 -0.143763 -21.644605 4.716116 -6.838072 22.345400 -0.153654 -4.116368 2.883834 -0.035700 0.552740 0.411790 -3.654038 -2.706857 -6.993591 10.745908 -6.017954 7.247702 -6.847308 -5.368295 9.249723 1.629990 -6.583058 -10.975380 -14.136671 11.003473 32.032166 -0.263870 6.238480 -0.725410 -12.140934 -8.342722 4.851550 -43.039674 -9.145425 0.747113 14.581067 -5.282743 -1.655678 -4.069875 3.103995 0.320040 0.312720 -0.116800 0.319650 9.004207 12.085426 7.138357 47.920266 11.029174 -4.151091 50.511060 61.908525 22.878897 2.137183 -1.988597 -0.118940 0.131460 0.003400 -0.012090 
-0.629080 16.689710 -5.814330 -2.360834 -10.572092 0.592365 -15.044657 13.731074 2.977626 17.356913 -0.857879 -9.031204 -13.801649 10.876778 20.987200 0.126851 6.900444 2.335197 0.317680 -0.027690 0.162400 18.285700 -10.862700 2.047871 -19.641537 -0.046236 -21.411792 4.589859 -6.651689 21.798867 -0.156197 -4.018227 2.918719 -0.015920 0.546990 0.394330 -3.663260 -2.695576 -7.001799 11.016069 -6.087367 7.420992 -7.040658 -5.407898 9.237738 1.692379 -6.947796 -10.978186 -14.774842 11.448640 31.584478 -0.025340 6.323040 -1.801360 -12.193103 -7.966340 4.707956 -42.768137 -8.565155 0.867645 15.582076 -2.189967 -1.195074 -4.087186 3.080146 0.352630 0.294780 -0.107110 0.320730 8.941078 12.011184 7.212304 46.387890 11.021779 -3.148191 58.798794 64.527590 28.887879 2.200661 -1.956303 -0.142300 0.163500 -0.000060 -0.024480 
-0.636770 16.688950 -5.794110 -2.735863 -11.018946 1.234896 -15.037696 13.568069 3.128685 18.743867 -0.735112 -9.400786 -15.827642 11.629031 20.601556 0.169407 7.246473 2.217740 0.308280 -0.049990 0.162390 18.310718 -10.799606 2.014556 -18.796004 0.245909 -21.045648 4.357449 -6.232889 20.424753 -0.132459 -3.824524 2.997807 -0.012340 0.570000 0.390160 -3.724947 -2.543849 -7.032197 12.342332 -6.121697 7.295496 -7.448696 -5.480338 9.029847 2.057324 -7.404346 -11.069096 -15.281079 12.083666 30.264855 -0.253920 6.795560 -1.841490 -11.953017 -6.922974 4.597066 -43.089698 -6.457646 0.318417 16.124504 -1.005666 -0.922507 -4.115262 3.066853 0.362060 0.303990 -0.121100 0.323280 7.965224 11.473292 7.356588 43.747942 11.070791 -0.985103 77.540520 68.867344 43.055707 2.483934 -1.677900 -0.170380 0.184160 0.010280 -0.031800 
-0.639250 16.678370 -5.770670 -2.820141 -10.693181 2.209857 -15.045562 13.416622 3.257226 19.574696 -0.669095 -10.542469 -17.306965 12.222247 20.630733 0.227686 7.450388 2.132261 0.309920 -0.039880 0.153890 18.319990 -10.732677 2.024039 -18.649004 0.507091 -21.143434 4.555637 -6.094773 19.683413 -0.118941 -3.745618 3.029229 -0.010120 0.571190 0.388650 -3.745701 -2.400647 -7.096822 13.165486 -5.909977 7.320532 -7.179887 -5.391316 8.206381 2.391187 -7.968380 -11.049520 -15.881225 12.149504 28.406971 -0.394110 6.673780 -2.098450 -11.329765 -5.128300 4.324385 -44.911652 -3.790652 -0.984960 17.938921 -1.616673 -0.922139 -4.110341 3.088241 0.343280 0.302100 -0.125620 0.327630 6.730744 10.519813 7.307894 40.868345 9.389788 -2.030233 106.190669 67.959155 66.471768 2.685997 -1.069201 -0.159710 0.178480 0.005180 -0.018520 
-0.623840 16.679100 -5.735150 -3.130109 -9.736225 3.019378 -15.012132 13.237248 3.374928 20.383822 -0.621574 -11.699340 -18.396576 12.701712 20.777542 0.259385 7.618363 2.081058 0.257860 -0.105550 0.124470 18.352121 -10.742748 2.072354 -18.972633 0.656154 -20.833028 5.375037 -6.239789 18.952575 -0.107881 -3.761224 3.052452 -0.049860 0.586850 0.357480 -3.856728 -2.075416 -7.229412 14.640837 -5.557114 7.766128 -7.653276 -5.026712 7.299064 3.161093 -7.896117 -11.154345 -15.166007 11.366514 27.390939 -1.040710 6.488970 -1.987130 -11.303588 -2.915054 3.783581 -46.230635 0.265654 -3.758885 20.718202 -6.752660 -1.826695 -4.059661 3.039380 0.365210 0.297010 -0.140940 0.327190 5.127672 8.692313 7.948269 39.900693 5.463764 -3.942407 133.194225 64.454063 96.528460 2.136678 -1.454883 -0.196520 0.201550 0.019120 -0.024140 
-0.605580 16.684900 -5.710840 -3.531830 -8.599956 3.504137 -14.998732 13.153058 3.470379 21.092168 -0.626549 -12.878226 -18.555345 12.878629 21.184057 0.261014 7.664670 2.028881 0.236190 -0.149350 0.137700 18.351235 -10.776934 2.116781 -18.903580 0.841750 -20.553458 5.774874 -6.306066 18.608259 -0.120942 -3.740717 3.058161 -0.097010 0.535240 0.370750 -3.880978 -1.857197 -7.375152 15.449848 -5.114411 9.095028 -7.406905 -4.511235 6.418038 3.813504 -7.303872 -11.165194 -13.577867 9.932512 26.770565 -2.481210 6.519200 -3.550640 -10.936499 -0.191992 2.773448 -46.827401 3.655840 -6.363797 20.450442 -12.428524 -2.763326 -4.001822 3.004389 0.409880 0.264020 -0.109750 0.300150 3.381929 5.941972 8.864313 40.371871 1.529667 -3.405013 154.210994 59.921248 121.637101 1.934426 -1.893210 -0.187460 0.167790 0.029990 -0.047250 
-0.587260 16.674890 -5.678050 -4.098178 -6.735978 4.760486 -15.004118 12.958503 3.606094 22.016476 -0.713726 -14.780095 -19.112234 13.052845 21.225311 0.270633 7.736643 1.993037 0.200870 -0.204570 0.112660 18.357566 -10.727669 2.178986 -18.914295 1.091150 -20.190764 6.914991 -6.370923 17.379667 -0.115641 -3.731922 3.079474 -0.137710 0.548690 0.370050 -3.909409 -1.604619 -7.499328 16.072877 -4.604066 9.681001 -6.073787 -4.021469 4.858520 3.714344 -6.785934 -10.970445 -12.036223 8.925614 24.907323 -2.105800 6.223690 -3.951030 -9.110636 3.894910 1.822216 -48.969736 8.241561 -10.078734 18.045975 -21.107022 -3.827087 -3.937333 2.984181 0.426400 0.258480 -0.119490 0.301270 1.652330 1.938725 9.415452 41.364420 -2.903336 -2.363576 167.591416 53.968831 139.133359 1.907089 -2.149606 -0.200130 0.161570 0.042610 -0.047500 
-0.554120 16.661890 -5.646350 -4.610361 -4.941523 5.851367 -15.021415 12.798307 3.754841 22.743878 -0.809379 -16.690450 -19.557455 13.226453 21.469557 0.260134 7.832920 1.948333 0.145900 -0.286820 0.090080 18.351371 -10.676036 2.226853 -18.986188 1.350313 -19.899576 7.759558 -6.413527 16.480851 -0.110213 -3.723052 3.091136 -0.188420 0.562180 0.367890 -3.900909 -1.427404 -7.636251 16.393909 -4.051878 10.615307 -4.390987 -3.334362 2.622305 3.466204 -6.176419 -10.496666 -10.487238 7.679345 23.312939 -2.053350 6.062210 -4.778080 -7.597481 8.221274 0.870137 -51.129449 13.070866 -13.968021 16.369459 -29.020499 -4.544249 -3.883645 2.969481 0.463870 0.251510 -0.126310 0.285610 0.443090 -2.272451 9.578412 42.649120 -7.421859 -1.795752 172.941049 48.239515 145.956109 1.936499 -2.256182 -0.230750 0.165270 0.073540 -0.061370 
-0.518830 16.652780 -5.640950 -4.782199 -2.872663 6.731384 -15.091643 12.676200 3.941590 23.270827 -0.974354 -18.983410 -20.003973 13.556658 22.318707 0.271079 7.971856 1.870044 0.121580 -0.325600 0.089010 18.300311 -10.573873 2.246218 -19.143895 1.597493 -19.589012 8.338858 -6.351331 15.651142 -0.107900 -3.699472 3.109484 -0.224720 0.540050 0.373560 -3.755184 -1.440998 -7.796708 15.187486 -3.235355 12.085485 -1.728221 -2.315078 0.256175 3.002452 -5.233756 -9.786514 -8.556312 6.160811 22.006373 -2.370070 6.255640 -5.766690 -7.260455 11.934086 0.212902 -51.944976 18.686525 -18.055370 15.046018 -37.835553 -5.240399 -3.795981 3.026803 0.487690 0.241750 -0.119730 0.268080 0.925848 -6.145870 9.159265 42.930252 -12.259705 -1.764818 177.932304 42.102194 154.158622 1.976652 -2.328156 -0.231510 0.137400 0.083100 -0.080470 
-0.493040 16.650490 -5.654210 -4.502625 -0.865004 7.755674 -15.214867 12.577112 4.154049 23.411901 -1.329398 -21.832642 -20.382854 13.925517 23.502198 0.254077 8.151062 1.790220 0.088110 -0.371910 0.090930 18.213616 -10.396345 2.243349 -19.590464 1.830277 -19.859856 8.805112 -6.310595 15.374784 -0.089961 -3.690718 3.117067 -0.244680 0.540270 0.363430 -3.479603 -1.673843 -7.941307 12.317501 -2.460851 13.377766 1.707238 -1.355686 -2.476278 2.117662 -4.072274 -8.623256 -6.458348 4.468858 21.031629 -2.582770 6.332220 -6.443320 -7.113617 15.111514 0.026236 -51.522529 24.731674 -21.556842 10.545007 -44.635647 -4.795999 -3.739644 3.090685 0.508460 0.249950 -0.129730 0.246210 2.607620 -9.807301 7.456749 43.231210 -15.966813 -3.639552 -175.491147 38.873428 170.983866 1.953282 -2.323113 -0.261150 0.140190 0.099830 -0.107260 
-0.445820 16.647410 -5.663510 -4.763802 0.905985 8.864618 -15.314732 12.457477 4.421406 23.959060 -1.661676 -24.330285 -21.303802 14.254646 23.962973 0.216196 8.395433 1.716431 0.056810 -0.437730 0.110840 18.161312 -10.175957 2.210648 -19.550231 2.111535 -20.082634 9.075587 -6.139792 15.055763 -0.071901 -3.609161 3.143380 -0.252590 0.567110 0.326570 -3.286401 -1.985820 -8.077960 10.920350 -2.162561 14.383439 3.972086 -0.647093 -5.316040 1.266401 -3.886178 -7.376234 -6.098270 3.138203 20.326502 -1.769420 5.761520 -7.290030 -6.662927 18.037132 -0.151069 -51.860857 29.826556 -24.633796 8.969433 -48.674886 -5.039556 -3.707506 3.071254 0.562400 0.241240 -0.147660 0.231600 3.930040 -12.609477 5.534017 42.099005 -19.396340 -5.681260 -169.370599 35.940008 -169.161168 1.907322 -2.289673 -0.337500 0.199590 0.119870 -0.140490 
-0.403680 16.634770 -5.677640 -4.985426 2.865300 10.032055 -15.414453 12.332629 4.670384 24.352216 -1.992913 -27.237187 -21.499784 14.643669 25.199776 0.155695 8.662604 1.622740 0.024870 -0.514270 0.110380 18.116178 -10.027666 2.139783 -19.124184 2.358515 -20.586456 8.589691 -5.909148 15.330920 -0.026569 -3.510664 3.183799 -0.260890 0.605990 0.306260 -3.098570 -2.176658 -8.156818 8.962600 -1.539979 14.949399 6.323317 0.073242 -7.565626 0.315248 -3.420030 -6.292555 -5.245212 1.691181 19.496421 -0.282320 4.371600 -7.756920 -4.767221 20.402772 -0.024078 -52.738334 33.493472 -27.314157 8.448236 -51.631513 -5.527592 -3.712903 3.076848 0.598960 0.250730 -0.192720 0.209420 4.086340 -14.945863 3.544754 42.099174 -20.823027 -7.607476 -160.894686 33.418842 -138.318657 1.817109 -2.271211 -0.403240 0.241300 0.164470 -0.174760 
-0.356930 16.619490 -5.686070 -5.316340 4.851927 11.563208 -15.501777 12.072333 4.968124 25.041930 -2.047849 -30.279720 -22.352527 15.229580 25.928550 0.166043 8.975616 1.522986 -0.034450 -0.589390 0.073020 18.106135 -9.898026 2.062699 -18.328732 2.706889 -21.605353 7.792029 -5.660020 15.794353 0.036535 -3.416258 3.222714 -0.280510 0.655000 0.310490 -2.973345 -2.101532 -8.213745 7.232948 -0.635386 14.638086 7.783264 0.902593 -9.534057 -0.269132 -2.291965 -5.440968 -3.171243 0.172129 18.228003 -0.457820 3.495030 -6.306230 -3.153646 22.442497 0.186920 -53.675045 37.306418 -29.442981 10.694886 -56.605756 -6.912278 -3.736805 3.139491 0.570050 0.301570 -0.246750 0.192170 3.743559 -17.520816 1.972903 44.306471 -22.232507 -9.562562 -154.413321 34.111894 -119.764346 1.766685 -2.292797 -0.435960 0.239340 0.206890 -0.181970 
